<svg id="Layer_1" data-name="Layer 1" xmlns="http://www.w3.org/2000/svg" viewBox="0 0 3342 796"><title>Artboard 1</title><path d="M0,633l5.5,0h3331l5.5,0v73c-2-.13-4-.38-5.95-.38H6c-2,0-4,.25-5.95.38Z"/><path d="M3342,726v70H0V726c2-.12,4-.35,6-.35H3336C3338,725.65,3340,725.88,3342,726Z"/><path d="M3342,73c-2.82-.13-5.63-.38-8.45-.38q-444.66,0-889.32,0h-7V0H3332l10,0Z"/><path d="M3342,163c-3.33,0-6.67,0-10,0H2437.33V92.63h5.29q447.47,0,894.93,0c1.48,0,3,.23,4.45.35Z"/><path d="M0,0Q198.21,0,396.42,0H866.63V72.6h-6.86q-425.91,0-851.82,0c-2.65,0-5.3.25-7.95.38Z"/><path d="M0,93c1.65-.12,3.3-.35,5-.35q428,0,855.93,0h5.78V163H8c-2.67,0-5.33,0-8,0Z"/><path d="M2929.07,499.5q60.67-152.43,121.06-304.12h131.24q78.51,199.15,157.4,399.26H3071.33l-23.73-41.56h221.51l-122-316.3h-64.95L2960.13,542h-6c-91,0-182,.24-273-.11-43.33-.17-75.8-20-97.26-57.52-11.63-20.31-16.55-42.75-18.43-65.84-2.37-29-1.83-58,7.38-86,15.78-48,49.81-74.49,98.95-82.34a196.11,196.11,0,0,1,30.37-1.92q104.49-.24,209-.08h6.38V291.5h-6c-69.16,0-138.32-.1-207.48.06-18.81.05-36.57,4.64-52.69,14.74-22.87,14.34-35.12,35.61-38.91,61.72-3.75,25.84-2.57,51.54,6.18,76.44,12.45,35.42,40.36,55,77.84,55h232.55Z"/><path d="M2917.22,194.84V236.5h-6.33c-75.15,0-150.32-.75-225.46.28-44.08.61-81.34,17.46-107.53,54.54-13.24,18.74-20.43,40-23.47,62.52-5.31,39.21-4,78.15,8.79,116,10.66,31.46,29.38,56.61,59.91,71.54A113,113,0,0,0,2673.28,553q144.73.07,289.46,0h5.83l121.51-305h49.84l110.39,293.19H3043c-4.14-6.63-8.41-13.49-13.21-21.2l-31.84,75h-5.84c-109.49,0-219,.2-328.46-.12-37.54-.11-70.69-13.2-99.06-37.81s-44.66-56.43-52.69-92.54c-10.93-49.16-12.34-98.55,1.92-147.26,18.13-61.93,60.3-99.53,121.93-116.17a193.32,193.32,0,0,1,51.37-6.38c74.49.27,149,.12,223.47.12Zm121.33,304.29H3185l-71.68-191.82C3088.18,371.76,3063.47,435.16,3038.55,499.13Z"/><path d="M974.22,195h45.41v304.1h217.59l120.91-303.73h131.24l157.48,399.45h-267.4l-23.8-41.67h221.49l-122-316.34h-65c-3.72,9.27-7.49,18.65-11.24,28q-54.18,135.58-108.27,271.21c-1.71,4.28-3.73,6-8.65,6q-141.23-.25-282.46-.12h-5.31Z"/><path d="M1398.08,248h49.83q55,146.07,110.33,293H1350.85l-13.11-21c-10.81,25.45-21.23,50-31.8,74.91H913.67V195.41h47.07V553.09h315.79Zm-51.54,251.14H1493c-23.85-63.81-47.55-127.23-71.69-191.84C1396.17,371.78,1371.46,435.18,1346.54,499.14Z"/><path d="M366.05,553V387.22H216.51V345.15H414.79V595H409c-72.16,0-144.32.42-216.48-.18C156,594.51,124,581.16,97.4,555.74,70.66,530.15,56.28,498,49.06,462.31c-8.62-42.52-10.34-85.33-1.24-128,15-70.27,58.75-113.38,127.32-132.14a221.37,221.37,0,0,1,59.77-7.45c58.66.26,117.32.09,176,.09H418L394.94,236.5H218.39c-58.47,0-102.73,33-119.55,89-8.52,28.35-9.49,57.38-7.75,86.58S98,469.63,112,495.7c17.39,32.38,43.94,51.95,80.69,57a37.64,37.64,0,0,0,5,.33q82.24,0,164.48,0Z"/><path d="M2043.75,553v42h-6q-105.48,0-211,0c-35.19-.07-66.7-11.34-94.34-33-30.78-24.1-48.79-56.44-57.7-93.89-11.94-50.2-13.51-100.75,1-150.65,18-62,60.2-99.59,121.81-116.29a196.1,196.1,0,0,1,51.86-6.41q247.71.27,495.42.11H2352l-19.55,41.66h-7c-159.14,0-318.29-.42-477.43.27-44.47.2-82,17.39-108.36,54.87-13.08,18.62-20.2,39.75-23.22,62.09-5.3,39.21-4.07,78.15,8.73,116,10.65,31.46,29.34,56.63,59.85,71.6A112.82,112.82,0,0,0,1835.16,553q101.23.09,202.47,0Z"/><path d="M2043.69,499.5V542h-6.1c-64.83,0-129.65.3-194.47-.11-43.33-.27-75.78-20.09-97.21-57.59-11.61-20.31-16.52-42.76-18.4-65.85-2.36-29.05-1.81-58,7.41-86,15.8-48,49.85-74.45,99-82.27a195.91,195.91,0,0,1,30.36-1.92q141-.21,282-.08h6.64V595.1h-49V291.5h-6.5c-77.16,0-154.32-.42-231.47.19-34.43.27-63,13.46-80.8,44.53-9.43,16.44-12.14,34.65-12.29,53.42-.18,22.55,2.1,44.65,12.25,65.13,14.44,29.11,38.36,44.34,70.71,44.59,60.49.48,121,.14,181.48.14Z"/><path d="M626.36,594.69l-23.7-41.53H824.13l-122-316.38H637.21q-71.79,179.46-143.59,359h-48.2q80-200.64,159.76-400.45H736.34L893.79,594.69Z"/><path d="M390.12,248.17,364.44,291.5H234c-42.49,0-72.44,22.92-81.34,64.42-7.4,34.54-5.62,69,8.49,101.91,10,23.32,27.45,38.2,53.36,41.33,6.41.78,13,.32,19.47.33q33,0,66,0c1.78,0,3.57-.15,5.59-.25V439H216.47V398.46H352.82v143h-6.41c-47.82,0-95.65-.26-143.48.1-27.27.2-49-10.73-66.42-31-16.11-18.69-24.53-41-28.89-64.9-6.42-35.21-7.46-70.51.42-105.67,11.63-51.86,49.48-85.59,102-91.11a135.51,135.51,0,0,1,14-.75q79.74-.07,159.48,0Z"/><path d="M805.34,541.27H598l-13.32-21.48c-10.2,25.91-20,50.8-29.9,75.93H506.31Q575.75,421.66,645,248.11h50Zm-211.81-42.1H740c-23.86-63.84-47.56-127.26-71.7-191.87C643.15,371.81,618.45,435.22,593.53,499.17Z"/><path d="M2216,595.18h-50.83V248.52h160.68c-6.88,14.48-13.61,28.63-20.42,42.94H2216Z"/><path d="M2367.42,594.71V195.25h47.08V594.71Z"/><path d="M2428.21,195.09h45.32V594.71h-45.32Z"/><path d="M2342.29,87c16.46,25.37,32.27,49.75,48.43,74.68H2366L2316.3,84.2v77.46h-42.49V1.84H2367a51.38,51.38,0,0,1,51.47,49.39c.68,17.27-2.9,33-17.56,43.94-5,3.71-10.94,6-17,9.3l38,57.24h-25.87l-45.95-70.87h14.7A34.58,34.58,0,0,0,2399,58.44c1.15-20.34-8.51-33.72-28.23-39a17.42,17.42,0,0,0-4.43-.57q-35.49,0-71,0c-.65,0-1.3.13-2.39.24V144.81l4.49.29V23h65.45c11.38,0,25.72,10.16,29.76,21.07a31.3,31.3,0,0,1-9.27,34.47c-6.68,5.54-13.92,9.44-23.16,8.55C2354.65,86.55,2349,87,2342.29,87Zm-26.08-16.83c14.65,0,28.76.14,42.87-.11,3.05,0,6.65-.72,9-2.47,2.95-2.24,6-5.54,7-9,2.62-9.48-4-17.6-14.07-17.74-14.29-.19-28.59,0-42.89,0a7.9,7.9,0,0,0-1.85.45Z"/><path d="M899.48,161.86V2h5.37c30.49,0,61-.1,91.45.06a57.69,57.69,0,0,1,32.77,10.47c22,15,19.39,56.19-5,66.41a15.56,15.56,0,0,0-1.91,1.25c1.87,1.18,3.39,2.09,4.87,3.08,13.39,9,17.16,22.24,16.43,37.39-1,21.06-14.38,36.7-35,41.12a19.56,19.56,0,0,1-4,.37H903C902.06,162.15,901.07,162,899.48,161.86Zm19.42-143V144.66a14.19,14.19,0,0,0,1.83.32c22.66,0,45.33.51,67.95-.27,7.36-.25,15-3,21.81-6.11,8.14-3.74,12.74-11,13.61-20.17,1.1-11.72-2.76-21.62-11.1-29.79-2.66-2.6-5.56-5-8.23-7.33,4.18-3.64,8.35-6.74,11.86-10.45,10.26-10.84,11-23.61,5.62-36.69-5-12.09-15.23-15.57-27.63-15.42-23.31.28-46.63.08-70,.08Z"/><path d="M2185.55,19.06H2160L2102.38,161.8h-19.22c20.49-53.86,42.64-106.43,63.3-159.62h52.92q31.3,79.35,63,159.66H2155.23l-9.77-16.56h88.78C2217.86,102.8,2201.77,61.1,2185.55,19.06Z"/><path d="M1133.75,19.13l-57.28,142.54h-19.26c20.34-53.71,42.72-106.12,63.38-159.38h52.83q31.21,79.14,62.89,159.44H1129.1l-9.41-16.51h88.53L1159.58,19.13Z"/><path d="M1791.22,161.87v-16.7h88.5c24.16,0,36.79-14.92,33-38.91-2.84-17.78-14.33-27.43-33.4-27.72-12-.19-24,0-36-.06-10.56-.08-20.13-2.94-25.3-12.9-5.55-10.7-5.18-22,.53-32.58a18,18,0,0,1,16.37-9.78c28-.12,56,0,84,0,.78,0,1.56.12,3.18.25-3.87,6-7.42,11.56-11.17,17.4H1886c-14.16,0-28.32,0-42.48,0-7.52,0-10.41,2.54-10.51,8.85-.12,7.55,3.74,12,10.84,12.1,13.66.12,27.32,0,41,0,28.63,0,48.19,18.85,48.92,47.46a78.43,78.43,0,0,1-1.29,17.86c-4.26,20.42-20.32,33.84-43.84,34.48C1856.33,162.53,1824,161.87,1791.22,161.87Z"/><path d="M1791.27,140.83v-17h14.09c22.66,0,45.32.06,68-.08a28.5,28.5,0,0,0,9.75-1.65,9.7,9.7,0,0,0,3.79-16c-3.79-4.19-8.27-6.9-14.38-6.73-10.66.29-21.33,0-32,.09-28,.22-54.1-16.57-49.94-57,2.76-26.74,18.87-40.6,45.73-40.67,28.16-.08,56.32,0,84.48,0h4.49v17h-11.65q-38.25,0-76.48,0c-17.35,0-26.89,9.32-27.27,26.74a64.6,64.6,0,0,0,.52,12.45c2.71,15.58,13.59,24.82,29.54,25.09,12.66.21,25.32,0,38,0,23.5,0,37.7,22.37,27.9,43.92-3.5,7.68-10,11.26-18,12.8a34.85,34.85,0,0,1-6.45.58q-43,.22-86,.36Z"/><path d="M1680.74,19v126h100.89v16.78H1661.4V2.26H1783L1771.86,19Z"/><path d="M2162.57,23.15h20.22c14.6,38.73,29.23,77.57,44.13,117.1H2143.7l-5.12-7.53c-4.22,10-8.18,19.38-12.25,29h-19.18C2125.67,115.44,2144.05,69.48,2162.57,23.15Zm37.93,100.34C2191,98,2181.65,73,2172,47.22c-10.15,26-19.82,50.79-29.77,76.27Z"/><path d="M1200.93,140.28h-83l-5.54-8-12.09,29.56H1081.1l55.59-138.59h20.12Zm-26.42-16.72c-9.48-25.41-18.78-50.3-28.56-76.49l-29.88,76.49Z"/><path d="M1566.41,145.59h78.86c-3.48,5.91-6.55,11.1-9.55,16.21h-88.43V2.12h19.12Z"/><path d="M1295.9,23.42V161.89h-19.13V41h-64.48V23.42Z"/><path d="M1441.6,40.86h-64.2V23.52h83.44V161.79H1441.6Z"/><path d="M2025.85,162h-19.27V41h-64.19V23.51h83.46Z"/><path d="M1704.2,99.32v24.37h77.55V140.4h-95.91V83.48h95.78V99.32Z"/><path d="M1571.81,2.08h18.1V123.92h68.51c-3.78,6.1-7.06,11.39-10.31,16.65h-76.3Z"/><path d="M1466.18,23.43h64.16l-8.19,17.37h-35.88v121h-20.09Z"/><path d="M1321.18,40.89v121h-20V23.55h64.14c-2.73,5.78-5.36,11.38-8.17,17.34Z"/><path d="M2087,41.06h-35.7V161.72h-20.2V23.53h64.17C2092.55,29.34,2089.91,35,2087,41.06Z"/><path d="M1704.19,40.82V61.9h77.65V78.47h-96v-55h82.51c-3.91,6-7.56,11.55-11.37,17.36Z"/><path d="M1940.69,18.55c4.17-6.29,7.62-11.48,11-16.52h154c-2.67,5.8-5.13,11.14-7.6,16.52Z"/><path d="M1540.73,2,1533,18.57H1375.9L1386.61,2Z"/><path d="M1210.67,18.57l11-16.55h154c-2.69,5.81-5.15,11.13-7.67,16.55Z"/><path d="M942.26,78.83v45c3.13,0,6.23,0,9.32,0,12.65-.24,25.34,0,37.93-1,10.57-.82,14.71-9.93,9.1-18.27A10.8,10.8,0,0,0,989,99.47c-10.32.1-20.63,0-31.06,0l-11.21-16c2-.16,3.35-.36,4.69-.37q19.25,0,38.5,0A29.3,29.3,0,0,1,1018,105.54c4.47,19.07-6.11,33.78-26.63,34.66-22.27,1-44.62.22-67.38.22V23h5.35c21.33,0,42.67.22,64-.09,10.91-.16,20.25,2.37,24.38,13.34,4.42,11.74,3.89,23.35-5.26,33.1-5.88,6.27-12.82,10-22,9.62-14.14-.54-28.32-.14-42.48-.14Zm-.08-16.9c16.72,0,33,.16,49.26-.09,6.34-.1,10.25-3.87,10.7-9.07.63-7.3-2.75-11.65-10.13-11.76-16.29-.24-32.58,0-48.87,0-.27,0-.53.33-1,.62Z"/></svg>